<?xml version="1.0" encoding="UTF-8"?>
<svg id="Layer_1" data-name="Layer 1" xmlns="http://www.w3.org/2000/svg" viewBox="0 0 373.57 430.85">
  <defs>
    <style>
      .cls-1 {
        fill: none;
        stroke: #000;
        stroke-miterlimit: 10;
        stroke-width: 2px;
      }
    </style>
  </defs>
  <path class="cls-1" d="M121.19,226.2l-1.8,56.33-12.09,7.46v24.95l16.46,10.8s1.29,6.94,2.83,7.97,8.49,4.37,8.49,4.37l6.69,54.78,2.73,1.74v1.62l2.94,2.35-3.16,2.35.22,8.83,5.59,3.97-.59,1.47,3.16,2.65-3.68,3.02-.44,4.93,5.96,3.6,16.41.44,4.27-1.25.81-.59v-5.66l-4.27-3.68,2.72-1.4.96-3.83,5.15-1.62,1.32-9.42-3.31-2.57,3.31-1.18v-3.68l2.5-.51,12.91-53.79s5.61,2.42,11.12-4.18l1.98-5.06s12.11-6.38,17.39-15.08l1.21-24.1-12.44-11.01.98-56.17s-4.86-4.69-17.08-6.86l2.61-4.26-2.71-3.49,2.26-3.16-2.07-4.27,1.94-2-2-4.2,1.81-2.26.19-1.81,30.11,30.66-25.43-40.89,32.6,22.86-12.55-18.82,36.97,20.28-40.11-34.39,64.31,7.17-40.44-16.92,125.48-20.05-146.64-3.71,22.63-7.26-21.35-2.99,51.46-11.92-51.78,2.15,53.61-45.96-50.38,24.87,56.65-89.1-88.74,72.96,11.34-75.92-42.4,81.34-31.55-42.4,11.83,40.92-29.09-37.47,20.7,61.13-32.43-29.58,25.03,41.9-60.64-5.92,48.8,22.68-63.1-2.96,58.17,18.24-82.33,32.04,55.71-8.38-35.49,20.7,46.34-11.34L.71,285.27l114.86-88.74-5.92,30.56,29.09-32.54,2.26,2.79-3.18,3.56,1.68,4.12-3.56,2.27,3.74,5.41-2.25,1.5.37,3.61s-9.32,1.33-16.63,8.4Z"/>
  <line class="cls-1" x1="152.66" y1="417.86" x2="171.72" y2="418.67"/>
  <path class="cls-1" d="M150.09,413.74s9.79-6.52,25.31-.29"/>
  <path class="cls-1" d="M147.44,398.58s3.86-3.68,31.12,1.25"/>
  <path class="cls-1" d="M144.5,394.61s-1.17-4.14,37.37.37"/>
  <path class="cls-1" d="M135.07,338.09s29.76-13.72,62.21,2.59"/>
  <path class="cls-1" d="M137.96,284.87v25.98s36.82,14.76,62.79,1.5l2.43-25.6s-25.79-17.01-65.22-1.87Z"/>
  <line class="cls-1" x1="210.38" y1="331.43" x2="200.76" y2="312.35"/>
  <line class="cls-1" x1="216.54" y1="281.24" x2="203.19" y2="286.74"/>
  <line class="cls-1" x1="119.39" y1="282.53" x2="137.96" y2="284.87"/>
  <line class="cls-1" x1="123.76" y1="325.74" x2="137.96" y2="310.85"/>
  <path class="cls-1" d="M192.25,281.93l1.49-2.17,1.73-2.3-.98-1.35,1.35-1.95-1.13-1.95.75-2.4-.9-2.25,1.2-2.78-1.58-2.4,2.4-2.48-.6-3.15,1.05-2.93-1.5-2.85,1.58-1.88-1.65-1.73,1.5-2.33-1.05-2.03,1.35-1.8-1.43-2.63,1.43-2.4-1.35-2.18,1.8-2.63-1.2-2.03,1.2-1.5-1.58-1.95,1.28-1.2-1.5-1.53c-30.95-6.82-55.39-1.09-55.39-1.09l1.29,2.06-2.76.39,2.76,2.45-2.47,1.96,2.47,1.96-2.96,2.06,2.35,2.55-2.16,2.16,2.76,2.06-2.66,3.33,2.26,2.22-1.67,3.5,2.07,2.46-1.75,3,1.11,2.41-2.07,1.72,2.02,3.25-1.92,2.66,1.38,2.51-2.26,2.41,2.41,2.71-2.41,1.87,3.5,2.56-2.56,2.29,1.67,1.16-.84,2.17,2.06,1.43"/>
  <polyline class="cls-1" points="161.01 279.12 161.01 225.57 171.3 226.11 169.78 278.6"/>
  <path class="cls-1" d="M202.28,194.56l-2.74-3.92,2.34-4.91-3.43-3.74.7-2.03s-6.47-5.38-10.45-5.61l-.39-6.47s-3.82-2.96-12.24-1.4v3.66l5.15.7-.08,2.42-7.09-.08-1.33-.31v-6.31l-10.37.55v5.77l-7.17.86-.39-2.42,3.82-.47v-3.9s-2.61-1.64-12.4,2.34l.82,6.55s-5.38.16-9.9,7.56l1.01,1.25-.31,4.05,2.42,2.03-1.51,3.85"/>
</svg>